<?xml version="1.0" encoding="UTF-8" standalone="no"?>
<!DOCTYPE svg PUBLIC "-//W3C//DTD SVG 1.1//EN" "http://www.w3.org/Graphics/SVG/1.1/DTD/svg11.dtd">
<svg width="100%" height="100%" viewBox="0 0 1000 1000" version="1.1" xmlns="http://www.w3.org/2000/svg" xmlns:xlink="http://www.w3.org/1999/xlink" xml:space="preserve" xmlns:serif="http://www.serif.com/" style="fill-rule:evenodd;clip-rule:evenodd;stroke-linejoin:round;stroke-miterlimit:2;">
    <style>
        svg { color: #000; }
        path { fill: currentColor; }
        @media (prefers-color-scheme: dark) {
            svg { color: #fff; }
        }
    </style>
    <g transform="matrix(0.1,0,0,-0.1,0,1000)">
        <g transform="matrix(1.30528,0,0,1.30528,-1543.807584,-1592.329125)">
            <path d="M5055,8450L3195,6590L3358,6428L3520,6265L5060,7805L6600,6265L6920,6585L5055,8450Z" style="fill-rule:nonzero;"/>
        </g>
        <g transform="matrix(1.30528,0,0,1.30528,-1543.807584,-1592.329125)">
            <path d="M7632,5773C7596,5689 7585,5653 7593,5648C7616,5636 7773,5599 7785,5603C7791,5606 7838,5671 7888,5749L7979,5890L7683,5890L7632,5773Z" style="fill-rule:nonzero;"/>
        </g>
        <g transform="matrix(1.30528,0,0,1.30528,-1543.807584,-1592.329125)">
            <path d="M3289,5525C3141,5495 3019,5429 2905,5315C2816,5226 2759,5130 2718,5000C2688,4904 2686,4730 2714,4630C2772,4418 2922,4236 3115,4144C3228,4090 3298,4076 3445,4076C3565,4076 3582,4079 3670,4109C3828,4163 3944,4245 4039,4371C4208,4593 4233,4870 4110,5125C4035,5279 3921,5392 3765,5466C3618,5536 3450,5557 3289,5525ZM3604,5202C3678,5168 3741,5107 3776,5038C3894,4805 3813,4512 3602,4408C3541,4378 3528,4375 3440,4375C3359,4376 3337,4379 3288,4402C3139,4471 3050,4621 3050,4805C3050,5016 3168,5184 3347,5230C3418,5248 3533,5235 3604,5202Z" style="fill-rule:nonzero;"/>
        </g>
        <g transform="matrix(1.30528,0,0,1.30528,-1543.807584,-1592.329125)">
            <path d="M7549,5526C7278,5469 7054,5274 6973,5025C6938,4917 6930,4760 6954,4657C6992,4497 7101,4327 7224,4234C7482,4038 7822,4019 8105,4183C8188,4232 8312,4353 8359,4432C8495,4664 8501,4905 8377,5145C8319,5257 8187,5389 8075,5447C7950,5511 7874,5531 7735,5536C7657,5538 7592,5535 7549,5526ZM7865,5206C8022,5135 8111,4967 8097,4772C8088,4632 8032,4522 7934,4448C7864,4394 7802,4375 7695,4376C7615,4376 7597,4379 7538,4407C7371,4485 7277,4677 7309,4878C7336,5056 7439,5182 7590,5225C7669,5247 7795,5238 7865,5206Z" style="fill-rule:nonzero;"/>
        </g>
        <g transform="matrix(1.30528,0,0,1.30528,-1543.807584,-1592.329125)">
            <path d="M4415,5488C4412,5481 4411,5162 4412,4780L4415,4085L4573,4082L4730,4079L4730,4540L4833,4540L4935,4539L5040,4353C5098,4251 5157,4147 5172,4123L5200,4080L5375,4080C5471,4080 5550,4082 5550,4084C5550,4086 5485,4202 5405,4343C5325,4483 5260,4602 5260,4607C5260,4612 5272,4623 5286,4631C5322,4650 5387,4725 5415,4780C5497,4942 5488,5137 5392,5286C5326,5388 5234,5456 5125,5484C5046,5505 4422,5508 4415,5488ZM5100,5152C5165,5087 5177,4975 5127,4887C5093,4826 5072,4820 4900,4820L4750,4820L4750,5190L5062,5190L5100,5152Z" style="fill-rule:nonzero;"/>
        </g>
        <g transform="matrix(1.30528,0,0,1.30528,-1543.807584,-1592.329125)">
            <path d="M5715,5488C5712,5481 5711,5162 5712,4780L5715,4085L5873,4082L6030,4079L6030,4540L6133,4540L6235,4539L6340,4353C6398,4251 6457,4147 6472,4123L6500,4080L6668,4080C6761,4080 6839,4082 6842,4086C6845,4089 6785,4202 6707,4338C6630,4474 6565,4592 6563,4600C6560,4610 6570,4622 6586,4630C6622,4650 6687,4725 6715,4780C6797,4942 6788,5137 6692,5286C6626,5388 6534,5456 6425,5484C6346,5505 5722,5508 5715,5488ZM6390,5164C6438,5123 6454,5084 6454,5005C6454,4949 6449,4926 6430,4892C6393,4826 6374,4820 6200,4820L6050,4820L6050,5190L6204,5190C6356,5190 6359,5190 6390,5164Z" style="fill-rule:nonzero;"/>
        </g>
        <g transform="matrix(1.30528,0,0,1.30528,-1543.807584,-1592.329125)">
            <path d="M1630,5480L1630,4080L1960,4080L1960,4630L2223,4632L2485,4635L2488,4768L2491,4900L1960,4900L1960,5190L2600,5190L2600,5480L1630,5480Z" style="fill-rule:nonzero;"/>
        </g>
        <g transform="matrix(1.30528,0,0,1.30528,-1543.807584,-1592.329125)">
            <path d="M7685,3865C7541,3838 7437,3784 7347,3691C7189,3528 7140,3281 7222,3062C7238,3020 7260,2988 7309,2939C7391,2857 7497,2804 7720,2732C7909,2672 7975,2642 8020,2595C8051,2563 8055,2553 8055,2504C8055,2454 8052,2445 8023,2420C7983,2384 7934,2370 7844,2370C7705,2370 7468,2452 7338,2546C7310,2565 7286,2580 7284,2577C7282,2575 7242,2493 7196,2394L7112,2215L7138,2192C7224,2120 7469,2025 7648,1995C7773,1974 7981,1979 8075,2005C8233,2048 8358,2143 8423,2269C8470,2359 8485,2427 8484,2550C8484,2721 8441,2830 8335,2928C8257,3001 8143,3054 7925,3120C7648,3205 7600,3238 7600,3345C7600,3396 7603,3405 7633,3435C7672,3474 7722,3490 7806,3490C7919,3490 8093,3430 8210,3351C8235,3334 8258,3320 8261,3320C8271,3320 8432,3660 8427,3673C8419,3693 8233,3786 8135,3819C7964,3876 7822,3891 7685,3865Z" style="fill-rule:nonzero;"/>
        </g>
        <g transform="matrix(1.30528,0,0,1.30528,-1543.807584,-1592.329125)">
            <path d="M4103,3813C4099,3803 3931,3401 3729,2920L3362,2045L3583,2042C3752,2040 3805,2043 3811,2052C3816,2059 3852,2147 3892,2247L3965,2430L4329,2427L4694,2425L4769,2233L4844,2040L5289,2040L5273,2078C5265,2098 5098,2495 4903,2960C4708,3425 4546,3811 4543,3818C4539,3827 4486,3830 4324,3830C4129,3830 4109,3828 4103,3813ZM4434,3093C4493,2943 4540,2816 4540,2811C4540,2798 4110,2795 4110,2808C4110,2818 4323,3370 4326,3367C4328,3366 4376,3242 4434,3093Z" style="fill-rule:nonzero;"/>
        </g>
        <g transform="matrix(1.30528,0,0,1.30528,-1543.807584,-1592.329125)">
            <path d="M5347,3824C5336,3813 5339,2856 5350,2755C5384,2443 5498,2229 5699,2098C5915,1957 6262,1944 6510,2067C6566,2095 6607,2127 6671,2190C6746,2265 6765,2290 6809,2381C6910,2588 6922,2694 6918,3335L6915,3825L6505,3825L6499,3265C6493,2650 6494,2663 6429,2540C6393,2472 6341,2422 6271,2388C6233,2369 6208,2365 6130,2365C6049,2365 6027,2369 5985,2389C5892,2435 5820,2530 5783,2656C5768,2708 5765,2782 5760,3270L5755,3825L5554,3828C5444,3829 5351,3827 5347,3824Z" style="fill-rule:nonzero;"/>
        </g>
        <g transform="matrix(1.30528,0,0,1.30528,-1543.807584,-1592.329125)">
            <path d="M1630,3810L1630,2030L1838,2032L2045,2035L2048,2398L2050,2760L2760,2760L2760,2030L3180,2030L3180,3810L2760,3810L2760,3130L2050,3130L2050,3810L1630,3810Z" style="fill-rule:nonzero;"/>
        </g>
    </g>
</svg>
